<svg width="32" height="27" viewBox="0 0 32 27" fill="none" xmlns="http://www.w3.org/2000/svg">
<path d="M29.8276 5.2356H26.8998L26.2272 2.20139C25.9399 0.905253 24.8106 0 23.4808 0H13.3164C11.9867 0 10.8573 0.90519 10.57 2.20133L9.89738 5.2356H9.20263V3.94096C9.20263 3.2114 8.608 2.6178 7.87712 2.6178H3.59138C2.8605 2.6178 2.26588 3.2114 2.26588 3.94096V5.2356H2.17231C0.9745 5.2356 0 6.20843 0 7.40424V22.0919C0 23.2877 0.9745 24.2605 2.17237 24.2605H4.39406H12.2471C14.0205 25.4073 16.1329 26.0741 18.3986 26.0741C20.6643 26.0741 22.7767 25.4073 24.55 24.2605H29.8276C31.0255 24.2605 32 23.2877 32 22.0919V7.40424C32 6.20843 31.0255 5.2356 29.8276 5.2356ZM11.7904 2.47093C11.9501 1.7508 12.5776 1.24779 13.3164 1.24779H23.4807C24.2196 1.24779 24.8471 1.75073 25.0067 2.47093L25.6196 5.2356H24.55C22.7766 4.08883 20.6643 3.42204 18.3986 3.42204C16.1329 3.42204 14.0205 4.08883 12.2471 5.2356H11.1775L11.7904 2.47093ZM3.51588 3.94096C3.51588 3.89941 3.54975 3.86565 3.59138 3.86565H7.87706C7.91869 3.86565 7.95256 3.89947 7.95256 3.94096V5.2356H3.51588V3.94096ZM5.01906 23.0126V16.2357C5.01906 15.8911 4.73925 15.6118 4.39406 15.6118C4.04887 15.6118 3.76906 15.8911 3.76906 16.2357V23.0127H2.17237C1.66381 23.0127 1.25 22.5996 1.25 22.0919V7.40424C1.25 6.89649 1.66381 6.48345 2.17237 6.48345H2.89094H8.57756H10.3991H10.6496C8.43769 8.55152 7.053 11.4912 7.053 14.748C7.053 18.0049 8.43769 20.9445 10.6496 23.0126H5.01906ZM24.1692 23.0127C23.4242 23.5326 22.606 23.9547 21.7333 24.2605C20.6888 24.6265 19.5667 24.8262 18.3986 24.8262C17.2304 24.8262 16.1082 24.6264 15.0638 24.2605C14.1911 23.9547 13.373 23.5326 12.6279 23.0127C10.0154 21.1892 8.303 18.1648 8.303 14.7481C8.303 11.3314 10.0154 8.30694 12.6279 6.48352C13.3729 5.96354 14.1911 5.54145 15.0638 5.23567C16.1083 4.86967 17.2304 4.66995 18.3986 4.66995C19.5667 4.66995 20.6889 4.86973 21.7333 5.23567C22.606 5.54145 23.4241 5.96354 24.1692 6.48352C26.7817 8.30694 28.4941 11.3314 28.4941 14.7481C28.4941 18.1648 26.7817 21.1892 24.1692 23.0127ZM30.75 22.0918C30.75 22.5996 30.3363 23.0126 29.8276 23.0126H26.1475C28.3594 20.9445 29.7441 18.0049 29.7441 14.748C29.7441 11.4912 28.3594 8.55152 26.1475 6.48345H26.398H29.8276C30.3363 6.48345 30.75 6.89649 30.75 7.40424V22.0918Z" fill="#5221E6"/>
</svg>
