<svg width="26" height="26" viewBox="0 0 26 26" fill="none" xmlns="http://www.w3.org/2000/svg">
<path fill-rule="evenodd" clip-rule="evenodd" d="M19.2336 1.60133C18.4975 0.865222 17.3874 0.651438 16.4305 1.06151L7.00714 5.1001C5.8941 5.57713 5.03594 6.50588 4.65549 7.65973C3.76246 10.3682 2.60708 13.9468 1.67428 17.0059C1.20815 18.5346 0.795621 19.9401 0.498919 21.0447C0.35075 21.5963 0.229365 22.0807 0.144391 22.4716C0.0652554 22.8358 0 23.1944 0 23.4529V23.8044L2.19436 25.9988H2.54586C2.80447 25.9988 3.16311 25.9336 3.52722 25.8545C3.91819 25.7695 4.40255 25.6481 4.95417 25.4999C6.05877 25.2033 7.46417 24.7907 8.99285 24.3246C12.052 23.3918 15.6306 22.2363 18.3392 21.3434C19.493 20.9629 20.4217 20.1048 20.8988 18.9917L24.9374 9.56829C25.3474 8.61145 25.1336 7.50134 24.3975 6.76523L19.2336 1.60133ZM17.0992 2.62152C17.4181 2.48483 17.7881 2.5561 18.0335 2.80147L23.1973 7.96537C23.4428 8.21074 23.5141 8.58077 23.3773 8.89971L19.3387 18.3232C19.0518 18.9924 18.4955 19.5046 17.8076 19.7314C15.1052 20.6224 11.5399 21.7735 8.49784 22.701C6.97594 23.1652 5.59147 23.5714 4.51389 23.8608C3.97444 24.0057 3.51965 24.1192 3.16676 24.196C3.09215 24.2121 3.02327 24.2265 2.9601 24.2389L11.6316 15.5674C12.5779 16.0195 13.7457 15.8535 14.5295 15.0697C15.5237 14.0755 15.5237 12.4636 14.5295 11.4694C13.5353 10.4751 11.9233 10.4751 10.9291 11.4694C10.1453 12.2532 9.97941 13.421 10.4315 14.3672L1.7599 23.0388C1.77238 22.9756 1.78668 22.9067 1.80291 22.8321C1.87961 22.4792 1.99315 22.0243 2.13806 21.485C2.42749 20.4074 2.83366 19.0229 3.29772 17.501C4.22533 14.4589 5.37634 10.8935 6.26738 8.19118C6.49416 7.50338 7.00635 6.94699 7.67571 6.66012L17.0992 2.62152Z" fill="#5221E6"/>
</svg>
